<svg xmlns="http://www.w3.org/2000/svg" viewBox="248.805 298.92 191.134 112.937" width="191.134" height="112.937">
  <defs>
    <style>
      .st8{fill-rule:evenodd;clip-rule:evenodd}.district-almora{fill:#f7c9d3}.st13{stroke:#000}.st13,.st14{fill:none;stroke-linejoin:round;stroke-miterlimit:10}.st13{stroke-width:.4}.st14{stroke:#4f4f4f;stroke-width:1.5}.district:hover{filter:brightness(.85);cursor:pointer}
    </style>
  </defs>
  <path class="st8 district district-almora sub-division-sult" id="sub-division-sult" d="m264.303 379.926.235-.234.469-.704.235-.705.705-.94 1.409-2.112.704-.939 1.409-.471.704-.468.704-.706v-.939l-.235-.704-.234-.94-.47-.704-.469-.47v-1.878l.235-.94.938-1.173.705-.705.47-.235.704-.468 1.175-.706.704-.468.939-.236.705-.94.469-.703v-1.878l-.469-.94-.47-.47-.235-.702-.235-.94v-.94l-.235-.939-.235-.705-.469-.704v-.94l.469-1.408.47-1.173v-1.646l.235-.939.235-.704.704-.47.47-.939.704-1.173v-3.288l-.234-.94-.235-.938-.47-1.174-.469-.939-.47-.705-.235-.703-.235-1.409v-3.288l-.235-1.172-.469-.941-1.879-1.408-.704.469-.705-.469-2.347-1.41-.705-.234-.47-.471-.469-.704v-.704l.704-1.173h.94l.939-.236.469-.47.939-.469.705-.235.704-.939 2.818-.938.939-.705.705-.235.704-1.409.705-.47.939-.702.939-.236h1.174l2.113 1.173 2.113 4.461-2.817.939-.469 4.464h-4.227l-.47 1.877.47 2.817 3.287 3.522 2.817.939 1.409 4.225-.938 3.757-.939 5.872 3.99 2.817 1.41-5.636h2.817l.469 4.228v4.694l-.939 3.992-3.757 3.287 4.696.47-2.347 3.287 2.817 5.401 3.288-5.87.94 19.253 4.695.234-.469.235-.705.471-.705 1.408-2.112 1.409-.94.704-1.878 1.879-.705.938-.47.236-.704.47-1.174.705h-3.521l-.706-.236-1.174-.234-.939-.705-2.347-.939h-.706l-.938-.47-.939-.94-.705-.469-1.409-.704-.939-.235-.704-.705-.939.235-1.879 1.878-1.879.94-1.174-.236v-.233l-1.643-.471-1.409-1.408-.235-.939-.469-.705-.47-1.408-.235-1.409-.235-.94-.469-1.173-.705-.705-.704-.469z"/>
  <path class="st8 district district-almora sub-division-bhikiyasain" id="sub-division-bhikiyasain" d="m277.687 327.096.47-1.878h4.227l.469-4.462 2.817-.939-2.113-4.461.94.235.704.469h.704l.94-.236.704-.704-.235-1.408-.235-1.879.235-.469.939-.235h1.645l1.409-.468.469-.706.705-1.174v-3.521l.469-.94.235-.94.704-.938.235-.703.235-.939.234-1.41.236-.47.234.47.47 1.41 1.408 1.172v.94l-.235.705v1.173l.94 1.643 1.175.236h.704l.938-.705 1.174.469.94.939v.47l-.47 1.408-.235 1.176-.47 1.407v4.227l.235.94.235 1.644.235.938v.705l-.235.704.47 1.41v1.878l-.47.704-.235.939-.704 1.409.469.705.94.468.704.705.939 1.879.705.468.704-.468.235-.94.235-1.644.235-.704.469-.704 1.409-.236.47.706.704.938.706 1.408.704.705v2.349l.469.703.939 1.174-.234.94h-2.114l-1.174-.47-.939-.234v1.173l.704.939 1.174 1.645 1.175 1.175.234.703.94.939.234.939-.234.94-.236.704v.94l1.175.234.939-.234.704.234.705 1.174v.704l.235.939.234.939.47 1.41v1.878l-.235.938-.704.471-.705-.705-1.878-.234-1.174-.47h-.704l-.704.704-.471 1.642v1.88l.235.704.705 1.175.704.703.705.471.47 1.174.234.705v1.173l-1.878.47h-2.114l-.939.704-.705.94v.704l.938.469.706.236h1.41l1.408.234 1.174.234.704.94v.94l-.469.937h.939l.939-.469.47.469.235.707v2.581l-.94.236-.704.468-.47.471-.704.468-.704.706-.236.939-.704.704-1.409.469-.939.235-1.41.47-1.408.704-.704.236-1.174.703-.705.47v.704l.235.704v.704l-.235.707-.469.703-.705.704-4.695-.234-.94-19.253-3.287 5.869-2.818-5.4 2.349-3.287-4.698-.469 3.758-3.288.94-3.992v-4.695l-.47-4.227h-2.818l-1.41 5.635-3.991-2.818.939-5.87.939-3.757-1.409-4.226-2.817-.94-3.287-3.522z"/>
  <path class="st8 district district-almora sub-division-chaukhutiya" id="sub-division-chaukhutiya" d="m300.933 327.33.705-1.409.234-.939.47-.703V322.4l-.47-1.41.235-.703v-.705l-.235-.94-.234-1.642-.236-.94v-4.227l.47-1.408.235-1.175.47-1.408v-.47l.234.236v.939l.235.703.705 1.175v.703l1.174.705h2.112l.706-.705.704-.234.234-.939.47-1.174.234-.705v-2.112l-.468-.471.234-1.173.939-.94.939-.469.94.235.705.705.235 1.173.469.94.235 1.408.47.47 1.878 2.818 1.409.468 1.174.471h2.348l1.173-.471.705-.703.704-.236 1.644-.234h.705l.939-.469h.939l.704-.236.235-.703.47-.705 1.878-.94.705-.234.939-1.175.235-.703v-.234l.704-1.176.47-.703.47-1.174 1.174.704.94.235h.938l.705.469.234 1.173.235.706.235.939v1.408l.939 1.879.47.47 1.174.234h2.582l.704.469.236.705v.939l.469 1.878-.234 1.409-.471 1.176-.468.937-.705.94-.235.469v.94l-.234 1.174-.235.704v1.88l.469.703.704.704.704.471h1.88l.468-.236v.939l.236.939v4.461l.469 1.408.235 1.176.469.938v.47l-7.748-5.87-3.756-.469-1.409 5.869h-5.401l-4.697-4.46-3.286 1.877-3.992-3.286-7.749 3.522v-1.88l-.704-.704-.705-1.408-.704-.94-.47-.704-1.408.236-.47.704-.235.704-.235 1.644-.234.94-.705.468-.704-.468-.94-1.879-.704-.705-.94-.469z"/>
  <path class="st8 district district-almora sub-division-someshwar" id="sub-division-someshwar" d="M347.189 325.922v-1.174l.705-.469.939-.235 1.174-.235h1.409l.704.47.47 1.173.469.94 1.409.939h.705l1.644.94 1.408-.471.705-.469.705-.705.938-.469h2.584l.939.235.469-.47v.938l.47.94.94.704h1.173l.94-.468 1.173-.236.704-.234 1.175.47.234.938.235 1.174v.94l.469.94.94.468 1.409.938.939.472 1.879 1.173.234 1.173-.234.707-.47.703-.235.938v.94l.235.94v.47h-4.697l-7.747 3.286 2.583 2.113 1.878 2.349-4.931 1.878 5.87 6.808-4.931 5.636-2.347-5.636-5.168-1.644v-2.816l.471-3.758-3.757-.939v-1.878l-.47-1.877-.704-.704-.47-.705-1.409-.471h-.939l-.938-.233-.705-.47-.47-.47-.469-.939-.236-1.409.471-1.409.704-.939.234-.94v-.94l-.469-.937-.235-1.176-.469-1.409v-4.461z"/>
  <path class="st8 district district-almora sub-division-ranikhet" id="sub-division-ranikhet" d="m306.803 364.898.705-.939.937-.705h2.115l1.878-.469v-1.174l-.235-.705-.47-1.174-.704-.469-.704-.704-.704-1.175-.236-.703v-1.879l.471-1.644.704-.705h.704l1.174.47 1.879.235.704.704.704-.47.235-.704 8.689 6.575 10.096-4.931 1.408-1.879-.469-3.287 4.227-.468 3.287 2.346 2.114-3.756h3.757l.938.939-3.757 6.105 4.696 2.349.47.939.47.704.704.704.704 1.41.705.703.469.704.235.706.235.703-1.409.47h-.939l-.939.235h-1.409l-1.173.704h-2.348l-.471.47-.234 1.175.234.703.471.705.468.469.705.939.704 1.176v1.877l.471 1.408.233.705.235 1.173.705.707.469.703.47 1.175v1.643l.47.939.235.938v.94l.234 1.174.235.939v1.175l-.235 1.174-.469 1.407-1.644-.704-1.174-.234-.939.234-.469.47-1.409.939-.47.706-.234.938v1.174l-.235 1.174-.47.469-.235.939v1.409l-.235.941-.704.468h-1.174l-.469-.704-.235-.705v-.704l-.705-.939-.705-.469h-.704l-.94.233-1.174.236-.938.469-.705.703h-.939l-.705-.233-.94-.235-.703-.47-1.174-1.174-1.409-.94-.705-.704-.234-.938v-1.644l-.235-.705-.94-.704-.704-.703-1.174-.471-.235-.939v-1.408l-.234-.704-.704-.94-.471-.704-.938-.47h-.704l-.706-.47v-.94l.235-.937-.939-.471-1.409-.468h-.939l-.704-.236-.704-.469-.941-.47-.469-.939v-2.584l-.705-.47v-2.58l-.234-.707-.47-.469-.938.469h-.94l.469-.938v-.939l-.704-.94-1.174-.234-1.408-.234h-1.411l-.704-.236-.938-.47z"/>
  <path class="st8 district district-almora sub-division-dwarahat" id="sub-division-dwarahat" d="m307.508 335.08.939.234 1.174.469h2.113l.235-.939-.94-1.174-.468-.703v-.471l7.747-3.521 3.993 3.286 3.286-1.877 4.697 4.46h5.401l1.408-5.869 3.757.469 7.748 5.87v.469l-.233.94-.705.939-.47 1.409.235 1.409.704 1.409h.236l.704.468.938.235h.94l1.409.469.469.707.705.702.469 1.878v2.351l-.469 1.173-.47.704-.47.94-.469.704-1.409 1.409v1.879l.235 1.173-4.695-2.349 3.755-6.104-.938-.939h-3.757l-2.113 3.757-3.287-2.347-4.227.468.468 3.288-1.408 1.877-10.096 4.931-8.689-6.572v-2.115l-.469-1.409-.235-.939-.235-.939v-.705l-.704-1.175-.704-.233-.94.233-1.174-.233v-.94l.235-.704.235-.94-.235-.939-.94-.939-.233-.703-1.176-1.175-1.172-1.644-.705-.939z"/>
  <path class="st8 district district-almora sub-division-bhanoli" id="sub-division-bhanoli" d="M382.645 375.934v-4.226l15.733-3.286 3.052-6.811h1.879l1.878 4.228 6.574-6.34.705.939 1.409.469 1.173-.235 1.175.235.705.704v1.174l-.235.706v.703l.235.704.235 1.175.234 1.175v1.642l.704.94 2.819 1.409.234.704v1.878l.235 1.41.469.703v.94l.235.704.47.47.704.468 1.644.707.704.703.47.704.235.705.469 1.173 1.174.704h1.174l1.408-.468h.706l.704.468.47.47.468.704.94.471.704.703.94.236 1.174 1.174 1.175.235h.939l1.174.234-.47.94-.234.705-.705.704-.94.704-1.173.471-1.175 2.346-.705.939-1.408.236-.704.236h-.705l-.704.233-1.175.235-.938.235-.47.705-.939.704-.705.704-1.408.938-.94.237-.939 1.407-1.409.94-1.173.234h-.939l-.705-.469-1.175-.234h-3.053l-.939.234-.706.235h-1.642l-.47-.469-.938-.236-.704-.47-.94-.704h-.704l-.704.471-.236.468-1.878-3.052-9.626 3.287-3.288-2.817 5.636-5.635-2.819-1.409-3.287-3.522 5.635-4.226-3.287-5.87-7.278.469z"/>
  <path class="st8 district district-almora sub-division-almora" id="sub-division-almora" d="m346.016 366.308.234-1.174.471-.47h2.348l1.173-.705h1.409l.939-.235h.939l1.409-.469-.235-.703-.235-.706-.469-.704-.705-.704-.704-1.409-.704-.705-.47-.703-.47-.939-.235-1.174v-1.88l1.409-1.409.47-.704.469-.939.47-.705.47-1.173v-.471l3.758.939-.47 3.758v2.817l5.166 1.644 2.347 5.635 4.931-5.635-5.87-6.809 4.931-1.878-1.878-2.349-2.583-2.113 7.747-3.286h4.697l.234.234v3.992l-.234 1.173v.94l-.235.938-.235.705.235 1.174.235.706.47.468.234 1.41v.938l-.234.704-.236 1.176.236 1.642.94.235.704.705.234.939.94.704.705.235.704.47.939.704.705.47.938.94 1.879.468h1.408l1.409-.468.94-.471.939-.235.704-.704.94-1.174 2.348-1.174.468-.47.705-.939.235-.703v-.706l.469-.704.704-.94.706-.469.938-.235h.941l.704.235 1.409.234.705.235.939-.469 1.173-.471h1.41l1.642.471 1.176.234 1.172.705.705.939.704 2.115.235.938v.705l-6.574 6.339-1.878-4.226h-1.879l-3.052 6.809-15.733 3.287v4.225l4.228 1.41 7.278-.47 3.286 5.871-5.634 4.227 3.286 3.52 2.819 1.41-5.401 5.399-6.105.704-2.348-4.224-2.347.939.938 3.755-.468 2.349-3.757-1.41-6.342 3.054h-.233v-.704l-.236-.705-.469-.705-.235-1.175-.236-.704-.233-.938v-.939l.469-1.878-.704-1.175-.94-.704-.469-.939v-1.41l-.235-.703-.939-.471-.704-.234h-2.349l-.704.469-.939-.235-.705-.469-1.878-.938-.704-.471-1.644-.468h-1.174l-.47.468h-.939l-1.879.471-.704.468h-1.174l.469-1.407.235-1.175v-1.174l-.235-.94-.234-1.174v-.939l-.235-.938-.47-.939v-1.644l-.47-1.175-.469-.703-.705-.706-.235-1.173-.233-.706-.471-1.407V370.3l-.704-1.176-.705-.938-.468-.47-.471-.704z"/>
  <path class="st8 district district-almora sub-division-jainti" id="sub-division-jainti" d="m372.08 402.466 6.339-3.052 3.757 1.408.47-2.348-.939-3.754 2.348-.94 2.348 4.225 6.105-.705-.235.236 3.287 2.817 9.628-3.288 1.878 3.053-.234.939-.94.471-1.173.468-.235.706-.471.938-.705.704-.234.47-1.174.938-1.174.707-.705.703-.704.938-.47 1.175-.47 1.174h-.939l-.938.235-1.644-.235h-1.879l-1.174-1.174-.94-.235-.938-.704-.704-.236-.705-.703-.939-1.174-.704-.471-.704-.232-.94.703-.236.704-.234.94-.234.705-.47.703v.705l-.47.704-.47 1.173-.704-.468-.704-.236-.706-.704-.704-.235-1.408-1.409-.47-.938-.235-.705-.704-1.174-.47-.704-.705-.47-.938-.234-.235-.236-.704-1.173-.471-.705z" style="stroke:#000;stroke-width:.4px"/>
  <path class="st14" d="m332.715 305.028.858-1.647.468-.704 1.37-1.277m-40.584-2.478.235.469.47 1.41 1.409 1.172v.94l-.236.705v1.174l.94 1.642 1.173.236h.704l.94-.705 1.175.469.963.969"/>
  <path class="st14" d="m302.577 307.373.234.236v.939l.235.703.705 1.175v.704l1.174.704h2.112l.706-.704.704-.235.234-.939.471-1.174.234-.705v-2.113l-.469-.47.235-1.174.938-.939.939-.469.94.235.704.705.236 1.173.468.939.236 1.409.47.47 1.878 2.818 1.409.469 1.174.47h2.349l1.172-.47.705-.704.704-.235 1.644-.235h.705l.939-.469h.939l.704-.236.236-.703.469-.705 1.878-.94.705-.234.939-1.175.235-.702v-.236m1.642-3.053 1.175.704.938.235h.939l.705.47.235 1.172.236.706.233.938v1.409l.94 1.879.469.47 1.175.234h2.583l.704.469.236.705v.939l.468 1.879-.234 1.408-.47 1.176-.47.939-.704.938-.235.471v.938l-.235 1.174-.235.704v1.88l.47.703.705.705.704.47h1.879l.469-.236"/>
  <path class="st13" d="M248.805 338.6v.705"/>
  <path class="st14" d="m295.532 299.343-.939.047-.234 1.409-.235.94-.235.703-.704.938-.235.94-.469.939v3.522l-.705 1.175-.469.705-1.409.469h-1.644l-.939.234-.235.47.235 1.878.235 1.408-.705.705-.939.235h-.705l-.704-.468-.94-.236-2.113-1.174h-1.174l-.939.235-.939.703-.705.472-.704 1.408-.705.233-.939.706-2.818.938-.704.94-.704.235-.94.469-.468.469-.94.236h-.939l-.704 1.174v.704l.469.704.47.471.704.233 2.348 1.409.704.47.704-.47 1.88 1.41.468.94.236 1.172v3.289l.234 1.409.235.703.47.704.469.939.47 1.175.235.938.234.94v1.409m69.214-15.79.523-.411.705-.468.939-.236 1.174-.235h1.409l.704.471.47 1.172.469.94 1.409.94h.705l1.644.94 1.408-.472.705-.468.705-.706.938-.469h2.584l.939.235.469-.47v.938l.47.94.94.704h1.173l.94-.468 1.173-.236.704-.234 1.175.47.234.939.235 1.173v.94l.469.94.94.468 1.409.939.939.471 1.879 1.175.234 1.173-.234.705-.47.703-.235.938v.94l.235.94.234.704v3.992l-.234 1.173v.94l-.235.939-.235.704.235 1.174.235.705.47.469.234 1.41v.938l-.234.704-.236 1.175.236 1.642.939.235.704.706.235.939.94.704.705.235.704.471.939.703.705.47.938.94 1.879.468h1.408l1.409-.468.94-.471.939-.235.704-.704.94-1.174 2.348-1.174.468-.47.705-.94.235-.704v-.704l.469-.704.704-.94.706-.469.938-.235h.94l.704.235 1.41.234.705.235.939-.469 1.173-.471"/>
  <path class="st13" d="m302.228 309.044-.064.026-.057.181-.235 1.175-.469 1.408v4.226l.235.94.234 1.644.235.938v.706l-.235.703.47 1.411v1.878l-.47.703-.234.939-.705 1.409.47.704.939.469.704.706.94 1.878.703.469.706-.469.234-.939.235-1.645.235-.704.47-.703 1.408-.235.47.704.705.938.704 1.409.703.705v2.349l.47.703.94 1.174-.235.939h-2.113l-1.174-.469-.939-.234v1.173l.705.939 1.173 1.644 1.173 1.175.235.704.94.938.235.94-.235.939-.235.704v.94l1.174.235.94-.235.704.235.705 1.173v.705l.235.939.234.939.47 1.409v1.879l-.235.938-.704.47-.705-.704-1.879-.235-1.173-.469h-.706l-.703.704-.47 1.643v1.879l.235.703.704 1.176.704.703.705.469.469 1.175.235.704v1.175l-1.879.47h-2.112l-.939.704-.704.939v.705l.939.468.704.236h1.409l1.409.235 1.173.234.706.939v.94l-.471.939h.94l.939-.47.47.47.235.705v2.582"/>
  <path class="st14" d="M277.452 340.95v1.878l-.704 1.173-.47.939-.704.47-.235.704-.234.939v1.645l-.471 1.173-.469 1.409v.94l.469.704.235.705.236.94v.939l.234.94.235.702.469.471.47.939v1.878l-.47.704-.704.939-.938.236-.705.468-1.175.706-.704.468-.469.235-.705.705-.939 1.173-.235.94v1.878l.47.47.47.704.234.94.234.704v.938l-.704.705-.704.47-1.409.471-.704.939-1.41 2.112-.704.94-.235.705-.47.704-.234.234m140.109-26.483 1.715-.05 1.643.471 1.175.233 1.172.706.705.938.704 2.113.236.94v.705l.704.939 1.409.469 1.174-.235 1.174.235.705.705v1.173l-.235.706v.703l.235.706.235 1.173.235 1.175v1.642l.703.94 2.819 1.409.234.704v1.878l.235 1.41.469.703v.94l.235.704.47.47.705.468 1.643.707.704.703.47.705.235.704.469 1.173 1.175.704h1.173l1.408-.468h.706l.704.468.47.47.468.704.94.471.704.703.94.236 1.175 1.175 1.174.234h.939l1.174.235"/>
  <path class="st13" d="M347.189 324.983v.939l.236.938v4.461l.469 1.409.235 1.176.469.938v.94l-.234.94-.704.938-.471 1.409.236 1.409.469.939.47.47.705.47.938.233h.939l1.409.471.47.705.704.704.47 1.877v2.35l-.47 1.172-.47.705-.469.939-.47.705-1.409 1.408v1.879l.235 1.173.47.941.47.703.704.705.704 1.41.705.703.469.704.235.706.235.703-1.409.469h-.939l-.94.236h-1.408l-1.173.704h-2.349l-.47.47-.234 1.174.234.704.47.704.469.47.705.938.704 1.176v1.878l.471 1.408.233.705.235 1.173.705.706.469.703.47 1.175v1.644l.469.939.236.938v.94l.234 1.174.235.939v1.174l-.235 1.175-.47 1.407"/>
  <path class="st14" d="m264.526 379.377.012.784.704.469.705.705.469 1.173.235.94.235 1.409.47 1.408.469.705.235.939 1.409 1.408 1.643.471v.233m80.539-1.643h1.174l.705-.469 1.878-.47h.939l.47-.469h1.174l1.643.469.704.47 1.879.939.705.469.94.235.704-.47h2.348l.705.235.938.471.236.703v.471m-74.905.702.47-.234.704-.939 1.879-1.879.939-.703 2.113-1.41.704-1.407 1.409-.94.469-.47.47-.704.235-.705v-.705l-.235-.704v-.704l.704-.47 1.175-.703.705-.237 1.408-.703 1.408-.471.94-.235 1.409-.469.704-.703.235-.94.705-.705.704-.468.471-.471.704-.469.938-.236m-44.21 16.905 1.24.471 1.88-.939 1.877-1.878.939-.236.705.706.939.234 1.409.705.705.469.939.939.939.471h.704l2.349.937.939.706 1.174.234.706.236h3.521l1.174-.706.827-.532"/>
  <path class="st14" d="m314.744 372.868 1.217.485v2.581l.47.94.939.469.705.469.704.236h.939l1.408.468.939.472-.233.938v.939l.704.47h.705l.938.469.47.704.704.94.236.706v1.408l.235.939 1.174.47.704.704.939.704.235.705v1.643l.235.94.704.704 1.409.938 1.173 1.175.705.469.939.235.705.236h.939l.704-.704.94-.472 1.174-.235.939-.233h.704l.705.468.704.94v.705l.235.703.47.705h1.173l.704-.469.236-.939v-1.409l.235-.94.469-.469.235-1.174v-1.174l.234-.939.471-.704 1.408-.94.47-.469.939-.235 1.175.235 1.961.757m16.823 2.53v.939l.469.94.94.703.704 1.176-.469 1.876v.94l.236.938.233.705.235 1.174.47.705.235.705v.705h2.113l.47.704.844 1.377"/>
  <path class="st14" d="m439.308 386.854.161 1.524-.233.704-.705.706-.939.703-1.174.471-1.174 2.346-.705.94-1.409.235-.704.236h-.704l-.705.233-1.174.236-.939.233-.471.704-.938.707-.705.703-1.408.939-.94.237-.939 1.407-1.409.94-1.173.234h-.94l-.704-.469-1.175-.234h-3.051l-.939.234-.705.235h-1.644l-.469-.469-.939-.236-.705-.47-.941-.704h-.704l-.704.471-.469 1.408-.939.47-1.174.469-.235.705-.469.94-.706.702-.234.47-1.174.94-1.174.705-.704.703-.705.939-.47 1.175-.469 1.174m-23.246-6.106.235.236.939.235.704.469.47.704.704 1.175.235.704.469.938 1.41 1.409.704.236.705.703.704.236.705.468.468-1.173.47-.704v-.704l.47-.704.234-.705.235-.939.235-.705.94-.703.704.234.705.469.939 1.175.705.703.705.235.938.704.939.236 1.174 1.174h1.879l1.644.234.938-.234 1.425-.454"/>
  <path class="st13" d="m300.438 384.571-.501-.152-2.764-.267-.939-19.253-3.287 5.869-2.818-5.4 2.348-3.287-4.696-.469 3.757-3.288.939-3.992v-4.695l-.468-4.227h-2.82l-1.408 5.635-3.992-2.818.939-5.87.939-3.757-1.409-4.225-2.817-.939-3.288-3.523-.468-2.817.468-1.878h4.227l.47-4.462 2.817-.939-1.156-3.512m26.046 15.956v.235l7.748-3.521 3.993 3.286 3.287-1.877 4.696 4.46h5.4l1.408-5.869 3.757.469 7.75 5.87v-.47l-.47-.939m5.871 14.323 3.756.939-.47 3.757v2.818l5.166 1.642 2.348 5.636 4.932-5.636-5.872-6.808 4.933-1.877-1.879-2.35-2.583-2.113 7.749-3.286 4.29-.016m-60.41 11.756 8.688 6.573 10.097-4.931 1.409-1.878-.47-3.287 4.227-.469 3.286 2.347 2.114-3.756h3.757l.94.939-3.758 6.104 4.697 2.349-.235-1.173v-1.645m56.195 45.341-1.721-2.139-9.626 3.287-3.288-2.816 5.636-5.635-2.818-1.409-3.289-3.522 5.637-4.227-3.288-5.87-7.279.47-4.226-1.409v-4.226l15.733-3.286 3.051-6.81h1.879l1.878 4.225 5.657-5.525.58-.242"/>
</svg>
